<svg height="50px" viewBox="0 -44 512 512" width="50px" xmlns="http://www.w3.org/2000/svg"><path d="m467.691406 0h-423.382812c-24.433594 0-44.308594 19.875-44.308594 44.308594v216.613281c0 24.433594 19.875 44.308594 44.308594 44.308594h157.539062v33.664062l-28.78125 9.589844c-18.121094 6.042969-30.296875 22.9375-30.296875 42.035156v3.328125h-14.769531c-8.15625 0-14.769531 6.609375-14.769531 14.769532 0 8.15625 6.613281 14.765624 14.769531 14.765624h256c8.15625 0 14.769531-6.609374 14.769531-14.765624 0-8.160157-6.613281-14.769532-14.769531-14.769532h-14.769531v-3.328125c0-19.097656-12.175781-35.992187-30.296875-42.03125l-28.78125-9.59375v-33.664062h157.539062c24.433594 0 44.308594-19.875 44.308594-44.308594v-216.613281c0-24.433594-19.875-44.308594-44.308594-44.308594zm-176.976562 363.550781 38.878906 12.957031c6.039062 2.015626 10.097656 7.644532 10.097656 14.011719v3.328125h-167.382812v-3.328125c0-6.367187 4.058594-11.996093 10.097656-14.007812l38.878906-12.960938c6.03125-2.011719 10.097656-7.65625 10.097656-14.011719v-44.308593h49.234376v44.308593c0 6.355469 4.066406 12 10.097656 14.011719zm191.746094-102.628906c0 8.144531-6.625 14.769531-14.769532 14.769531h-423.382812c-8.144532 0-14.769532-6.625-14.769532-14.769531v-216.613281c0-8.144532 6.625-14.769532 14.769532-14.769532h423.382812c8.144532 0 14.769532 6.625 14.769532 14.769532zm0 0"/><path d="m448 49.230469h-384c-8.15625 0-14.769531 6.613281-14.769531 14.769531v177.230469c0 8.15625 6.613281 14.769531 14.769531 14.769531h384c8.15625 0 14.769531-6.613281 14.769531-14.769531v-177.230469c0-8.15625-6.613281-14.769531-14.769531-14.769531zm-14.769531 177.230469h-354.460938v-147.691407h354.460938zm0 0"/></svg>