<svg height="50px" viewBox="-18 0 512 512.00036" width="50px" xmlns="http://www.w3.org/2000/svg"><path d="m473.996094 304.082031-46.75-90.351562-.011719-.019531c-1.695313-4.214844-5.152344-7.542969-9.867187-9.050782l-134.652344-44.492187v-32.675781h33.640625c13.191406 0 20.53125-15.390626 12.148437-25.625l-78.546875-96.117188c-6.285156-7.671875-18.03125-7.660156-24.308593 0l-78.546876 96.117188c-8.355468 10.199218-1.082031 25.625 12.148438 25.625h33.640625v32.71875l-134.507813 44.449218c-4.453124 1.425782-7.609374 4.4375-9.480468 8.183594l-47.148438 91.25c-4.445312 8.621094-.082031 19.101562 9.019532 22.097656l36.582031 12.085938v100.257812c0 6.773438 4.339843 12.777344 10.765625 14.902344.394531.128906 175.140625 57.871094 175.542968 57.988281 2.804688.796875 5.835938.734375 8.421876 0 .96875-.296875 174.585937-57.671875 175.546874-57.988281 6.433594-2.125 10.777344-8.128906 10.777344-14.902344v-100.257812l36.578125-12.085938c9.101563-2.992187 13.46875-13.5 9.007813-22.109375zm-180.984375 45.871094-32.800781-63.386719 144.652343-47.796875 32.804688 63.398438zm104.007812 77.242187-143.445312 47.386719c0-2.230469 0-130.136719 0-132.539062 18.992187 36.695312 16.835937 32.519531 17.714843 34.234375 3.601563 6.96875 11.707032 10.066406 18.867188 7.679687 6.039062-2 103.074219-34.058593 106.863281-35.3125zm-318.277343 0c0-17.53125 0 7.855469 0-78.550781 17.269531 5.707031 96.113281 31.761719 106.863281 35.3125 6.910156 2.304688 14.878906.03125 19.496093-8.882812l17.085938-33.085938v132.59375zm-7.898438-188.4375 144.644531 47.796876-32.75 63.398437-144.65625-47.796875zm122.042969-45.484374v27.980468c0 8.679688 7.050781 15.695313 15.695312 15.695313h58.4375c8.667969 0 15.695313-7.015625 15.695313-15.695313 0-38.027344 0 5.421875 0-28.03125 41.046875 13.566406 23.148437 7.652344 79.917968 26.410156l-.050781.019532-124.703125 41.207031-.039062.007813c-25.714844-8.488282-70.617188-23.324219-124.746094-41.214844 59-19.503906 40.246094-13.304688 79.792969-26.378906zm31.390625-81.476563c0-8.664063-7.019532-15.695313-15.695313-15.695313h-16.238281l45.464844-55.613281 45.449218 55.613281h-16.238281c-8.660156 0-15.691406 7.03125-15.691406 15.695313v93.761719c-22.835937 0-16.433594 0-27.050781 0 0-22.207032 0-43.480469 0-93.761719zm0 0"/></svg>