<?xml version="1.0" encoding="iso-8859-1"?>
<svg version="1.1" id="Capa_1" xmlns="http://www.w3.org/2000/svg" xmlns:xlink="http://www.w3.org/1999/xlink" x="0px" y="0px"
	 width="50px" height="50px" viewBox="0 0 512 512" style="enable-background:new 0 0 512 512;" xml:space="preserve">
<g>
	<g>
		<path d="M506.858,206.205l-89.961-86.074c-3.099-2.971-7.23-4.626-11.517-4.626H239.346c-4.293,0-8.419,1.66-11.517,4.626
			l-85.135,81.448H16.659C7.458,201.579,0,209.037,0,218.239v113.284c0,9.202,7.458,16.659,16.659,16.659h48.868v-33.319H33.319
			v-79.965H149.38c4.293,0,8.419-1.655,11.517-4.62l85.13-81.454h152.667l79.987,76.533v89.511H440.92v33.319h54.421
			c9.202,0,16.659-7.458,16.659-16.665V218.239C512,213.696,510.14,209.348,506.858,206.205z"/>
	</g>
</g>
<g>
	<g>
		<rect x="160.486" y="314.869" width="186.586" height="33.319"/>
	</g>
</g>
<g>
	<g>
		<path d="M113.284,269.883c-34.907,0-63.306,28.393-63.306,63.306s28.399,63.306,63.306,63.306
			c34.907,0,63.306-28.399,63.306-63.306S148.191,269.883,113.284,269.883z M113.284,363.17c-16.537,0-29.987-13.45-29.987-29.981
			s13.45-29.987,29.987-29.987c16.532,0,29.987,13.455,29.987,29.987S129.821,363.17,113.284,363.17z"/>
	</g>
</g>
<g>
	<g>
		<path d="M394.273,269.883c-34.907,0-63.306,28.404-63.306,63.311s28.399,63.3,63.306,63.3s63.306-28.399,63.306-63.306
			S429.18,269.883,394.273,269.883z M394.273,363.176c-16.537,0-29.987-13.455-29.987-29.987s13.45-29.987,29.987-29.987
			s29.987,13.461,29.987,29.993S410.811,363.176,394.273,363.176z"/>
	</g>
</g>
<g>
	<g>
		<rect x="149.38" y="201.579" width="345.961" height="33.319"/>
	</g>
</g>
<g>
	<g>
		<rect x="263.774" y="132.165" width="33.319" height="86.074"/>
	</g>
</g>
<g>
	<g>
		<rect x="352.625" y="132.165" width="33.319" height="86.074"/>
	</g>
</g>
</svg>