<?xml version="1.0" encoding="UTF-8"?>
<svg id="_Слой_1" data-name="Слой 1" xmlns="http://www.w3.org/2000/svg" width="300" viewBox="22 0 531 84">
  <defs>
    <style>
      .cls-1 {
        fill: #fff;
      }

      .cls-1, .cls-2, .cls-3, .cls-4 {
        stroke-width: 0px;
      }

      .cls-2 {
        fill: #7e807f;
      }

      .cls-3 {
        fill: #9c5f53;
      }

      .cls-4 {
        fill: #000;
      }
    </style>
  </defs>
  <g>
    <path class="cls-4" d="m116.03,13.8l9.71,27.41,9.66-27.41h10.23v37.8h-7.81v-10.33l.78-17.83-10.2,28.17h-5.35l-10.18-28.14.78,17.81v10.33h-7.79V13.8h10.18Z"/>
    <path class="cls-4" d="m163.3,13.8h7.22l14.15,37.8h-8.28l-2.62-7.79h-13.65l-2.6,7.79h-8.28l14.07-37.8Zm8.36,23.7l-4.75-14.15-4.7,14.15h9.45Z"/>
    <path class="cls-4" d="m187.06,31.48c0-3.63.64-6.84,1.92-9.6s3.11-4.89,5.49-6.37,5.14-2.22,8.29-2.22c4.36,0,7.87,1.17,10.54,3.5,2.66,2.34,4.21,5.62,4.62,9.84h-7.79c-.19-2.44-.87-4.21-2.04-5.31-1.17-1.1-2.95-1.65-5.33-1.65-2.6,0-4.54.93-5.83,2.79-1.29,1.86-1.95,4.75-1.99,8.66v2.86c0,4.08.62,7.07,1.86,8.96,1.24,1.89,3.19,2.83,5.85,2.83,2.41,0,4.2-.55,5.39-1.65,1.19-1.1,1.86-2.8,2.04-5.1h7.79c-.29,4.07-1.8,7.27-4.5,9.61-2.71,2.34-6.28,3.5-10.71,3.5-4.85,0-8.66-1.63-11.43-4.89-2.78-3.26-4.17-7.74-4.17-13.44v-2.31Z"/>
    <path class="cls-4" d="m220.65,20.11v-6.31h30.79v6.31h-11.58v31.49h-7.79v-31.49h-11.42Z"/>
    <path class="cls-4" d="m281.16,13.8v6.31h-17.5v9.01h14.95v6.1h-14.95v10.12h17.55v6.26h-25.34V13.8h25.29Z"/>
    <path class="cls-4" d="m285.78,51.6V13.8h14.74c2.84,0,5.34.52,7.49,1.56,2.15,1.04,3.81,2.51,4.97,4.43s1.74,4.09,1.74,6.53c0,3.7-1.27,6.62-3.8,8.76s-6.04,3.21-10.53,3.21h-6.83v13.32h-7.79Zm7.79-19.63h6.96c2.06,0,3.63-.48,4.71-1.45,1.08-.97,1.62-2.35,1.62-4.15s-.55-3.35-1.64-4.49c-1.09-1.14-2.6-1.73-4.52-1.77h-7.14v11.86Z"/>
    <path class="cls-4" d="m334.17,38.43h-14.61v-6.05h14.61v6.05Z"/>
    <path class="cls-4" d="m339.54,31.48c0-3.63.64-6.84,1.92-9.6,1.28-2.77,3.11-4.89,5.49-6.37,2.38-1.48,5.14-2.22,8.29-2.22,4.36,0,7.87,1.17,10.54,3.5,2.66,2.34,4.21,5.62,4.62,9.84h-7.79c-.19-2.44-.87-4.21-2.04-5.31-1.17-1.1-2.95-1.65-5.34-1.65-2.6,0-4.54.93-5.83,2.79-1.29,1.86-1.95,4.75-1.99,8.66v2.86c0,4.08.62,7.07,1.86,8.96,1.24,1.89,3.19,2.83,5.85,2.83,2.41,0,4.2-.55,5.39-1.65s1.86-2.8,2.04-5.1h7.79c-.29,4.07-1.8,7.27-4.5,9.61s-6.28,3.5-10.71,3.5c-4.85,0-8.66-1.63-11.44-4.89-2.78-3.26-4.17-7.74-4.17-13.44v-2.31Z"/>
    <path class="cls-4" d="m373.13,20.11v-6.31h30.79v6.31h-11.58v31.49h-7.79v-31.49h-11.42Z"/>
    <path class="cls-4" d="m408.36,51.6V13.8h14.74c2.84,0,5.34.52,7.49,1.56,2.15,1.04,3.81,2.51,4.97,4.43s1.74,4.09,1.74,6.53c0,3.7-1.27,6.62-3.8,8.76-2.54,2.14-6.04,3.21-10.53,3.21h-6.83v13.32h-7.79Zm7.79-19.63h6.96c2.06,0,3.63-.48,4.71-1.45,1.08-.97,1.62-2.35,1.62-4.15s-.55-3.35-1.64-4.49c-1.09-1.14-2.6-1.73-4.52-1.77h-7.14v11.86Z"/>
    <path class="cls-4" d="m441.51,31.89c0-3.72.67-7,2.01-9.83,1.34-2.83,3.24-5,5.69-6.52,2.45-1.51,5.25-2.27,8.4-2.27s5.95.76,8.4,2.27c2.45,1.51,4.34,3.69,5.69,6.52s2.01,6.1,2.01,9.8v1.69c0,3.72-.66,6.98-1.97,9.79-1.32,2.81-3.2,4.97-5.65,6.49-2.45,1.52-5.26,2.28-8.42,2.28s-5.93-.75-8.39-2.26-4.36-3.66-5.71-6.45c-1.35-2.8-2.03-6.01-2.05-9.64v-1.87Zm10.02,10.64c1.42,2.13,3.46,3.2,6.13,3.2s4.62-1.03,6.02-3.08c1.4-2.05,2.11-5.04,2.13-8.97v-1.84c0-3.96-.71-6.97-2.13-9.03-1.42-2.06-3.44-3.09-6.07-3.09s-4.63,1.02-6.05,3.05c-1.42,2.03-2.14,5.02-2.15,8.94v1.84c0,3.86.71,6.85,2.13,8.98Z"/>
    <path class="cls-4" d="m486.89,13.8v25.15l15.13-25.15h7.81v37.8h-7.81v-25.1l-15.13,25.1h-7.79V13.8h7.79Zm-1.32-9.94h5.32c0,1.09.32,1.93.97,2.53s1.54.9,2.69.9,2.01-.3,2.65-.9c.64-.6.96-1.44.96-2.53h5.37c0,2.3-.83,4.16-2.48,5.58-1.65,1.42-3.82,2.13-6.5,2.13s-4.85-.7-6.5-2.1c-1.65-1.4-2.48-3.27-2.48-5.61Z"/>
  </g>
  <g>
    <path class="cls-4" d="m105.85,76.35v-11.94h2.05v5.05h1.33l4.02-5.05h2.47l-4.72,5.74,5.12,6.2h-2.59l-4.14-5.09h-1.49v5.09h-2.05Z"/>
    <path class="cls-4" d="m117.36,70.71v-.37c0-1.18.23-2.24.68-3.17.45-.93,1.09-1.66,1.9-2.18.81-.53,1.69-.79,2.64-.79,1.55,0,2.76.51,3.62,1.53.86,1.02,1.29,2.49,1.29,4.39v.85h-8.09c.03,1.18.37,2.13,1.03,2.85s1.49,1.09,2.51,1.09c.72,0,1.33-.15,1.83-.44s.94-.68,1.31-1.17l1.25.97c-1,1.54-2.5,2.31-4.5,2.31-1.62,0-2.93-.53-3.95-1.59-1.01-1.06-1.52-2.48-1.52-4.26Zm8.09-1.42v-.15c-.06-1.04-.34-1.84-.84-2.41-.5-.57-1.18-.85-2.03-.85s-1.52.3-2.07.9c-.56.6-.9,1.44-1.04,2.52h5.98Z"/>
    <path class="cls-4" d="m129.85,64.41h1.86l.1,1.32c.83-1.03,1.99-1.54,3.46-1.54s2.57.54,3.4,1.62,1.25,2.59,1.25,4.51v.19c0,1.82-.42,3.28-1.25,4.39s-1.96,1.67-3.38,1.67-2.59-.46-3.42-1.38v5.75h-2.04v-16.53Zm4.84,10.49c.98,0,1.76-.39,2.33-1.16.58-.78.87-1.93.87-3.46,0-1.35-.29-2.41-.86-3.19-.57-.78-1.36-1.17-2.36-1.17-1.24,0-2.16.55-2.78,1.64v5.7c.61,1.09,1.54,1.63,2.8,1.63Z"/>
    <path class="cls-4" d="m143.61,70.14c.94-.69,2.27-1.03,3.98-1.03h1.99v-.94c0-.71-.21-1.28-.64-1.71s-1.06-.63-1.89-.63c-.73,0-1.34.18-1.83.55-.49.37-.74.81-.74,1.33h-2.05c0-.6.21-1.17.63-1.73.42-.55,1-.99,1.72-1.32.72-.32,1.52-.49,2.39-.49,1.38,0,2.45.34,3.23,1.03.78.69,1.18,1.64,1.21,2.84v5.5c0,1.1.14,1.97.42,2.62v.18h-2.14c-.12-.24-.21-.65-.29-1.26-.95.99-2.08,1.48-3.4,1.48-1.18,0-2.14-.33-2.9-1-.75-.67-1.13-1.51-1.13-2.53,0-1.24.47-2.21,1.42-2.9Zm1.26,4.11c.43.36.97.54,1.64.54s1.25-.17,1.82-.5c.57-.33.99-.76,1.25-1.29v-2.45h-1.6c-2.5,0-3.75.73-3.75,2.19,0,.64.21,1.14.64,1.5Z"/>
    <path class="cls-4" d="m157.65,64.41l4.04,9.24,4.06-9.24h2.55v11.94h-2.04v-8.68l-3.86,8.68h-1.41l-3.94-8.87v8.87h-2.04v-11.94h2.65Z"/>
    <path class="cls-4" d="m171.75,76.35v-11.94h2.04v8.72l5.51-8.72h2.04v11.94h-2.04v-8.71l-5.51,8.71h-2.04Z"/>
    <path class="cls-4" d="m186.25,64.4v3.63c.04,1.78.89,2.67,2.57,2.67.94,0,1.86-.12,2.76-.35v-5.94h2.05v11.94h-2.05v-4.33c-.9.24-1.82.35-2.76.35-1.49,0-2.63-.38-3.41-1.15s-1.18-1.85-1.2-3.27v-3.56h2.04Z"/>
    <path class="cls-4" d="m196.38,70.71v-.37c0-1.18.23-2.24.68-3.17.45-.93,1.09-1.66,1.9-2.18.81-.53,1.69-.79,2.64-.79,1.55,0,2.76.51,3.62,1.53.86,1.02,1.29,2.49,1.29,4.39v.85h-8.09c.03,1.18.37,2.13,1.03,2.85s1.49,1.09,2.51,1.09c.72,0,1.33-.15,1.83-.44s.94-.68,1.31-1.17l1.25.97c-1,1.54-2.5,2.31-4.5,2.31-1.62,0-2.93-.53-3.95-1.59-1.01-1.06-1.52-2.48-1.52-4.26Zm8.09-1.42v-.15c-.06-1.04-.34-1.84-.84-2.41-.5-.57-1.18-.85-2.03-.85s-1.52.3-2.07.9c-.56.6-.9,1.44-1.04,2.52h5.98Z"/>
    <path class="cls-4" d="m208.34,70.49v-.34c0-1.16.21-2.19.64-3.1.43-.9,1.04-1.61,1.84-2.11s1.74-.75,2.83-.75c1.34,0,2.45.4,3.34,1.2.89.8,1.36,1.84,1.42,3.12h-1.93c-.06-.77-.35-1.41-.88-1.9-.53-.5-1.18-.75-1.95-.75-1.04,0-1.84.37-2.41,1.12-.57.75-.86,1.83-.86,3.24v.39c0,1.38.28,2.44.85,3.18.57.74,1.38,1.11,2.43,1.11.73,0,1.36-.22,1.91-.66.54-.44.85-.99.9-1.66h1.93c-.04.68-.27,1.33-.71,1.95-.43.62-1.01,1.11-1.74,1.48-.72.37-1.49.55-2.3.55-1.63,0-2.92-.54-3.88-1.63s-1.44-2.57-1.44-4.45Z"/>
    <path class="cls-4" d="m220.87,76.35v-11.94h2.05v5.05h1.33l4.02-5.05h2.47l-4.72,5.74,5.12,6.2h-2.59l-4.14-5.09h-1.49v5.09h-2.05Z"/>
    <path class="cls-4" d="m233.98,70.14c.94-.69,2.27-1.03,3.98-1.03h1.99v-.94c0-.71-.21-1.28-.64-1.71s-1.06-.63-1.89-.63c-.73,0-1.34.18-1.83.55-.49.37-.74.81-.74,1.33h-2.05c0-.6.21-1.17.63-1.73.42-.55,1-.99,1.72-1.32.72-.32,1.52-.49,2.39-.49,1.38,0,2.45.34,3.23,1.03.78.69,1.18,1.64,1.21,2.84v5.5c0,1.1.14,1.97.42,2.62v.18h-2.14c-.12-.24-.21-.65-.29-1.26-.95.99-2.08,1.48-3.4,1.48-1.18,0-2.14-.33-2.9-1-.75-.67-1.13-1.51-1.13-2.53,0-1.24.47-2.21,1.42-2.9Zm1.26,4.11c.43.36.97.54,1.64.54s1.25-.17,1.82-.5c.57-.33.99-.76,1.25-1.29v-2.45h-1.6c-2.5,0-3.75.73-3.75,2.19,0,.64.21,1.14.64,1.5Z"/>
    <path class="cls-4" d="m247.16,71.4c-.77-.28-1.35-.71-1.76-1.3-.41-.59-.61-1.27-.61-2.05,0-1.09.41-1.96,1.23-2.63s1.91-1,3.28-1.01h5.02v11.94h-2.05v-4.64h-3.08l-2.81,4.64h-2.21l3-4.95Zm-.32-3.32c0,.58.2,1.05.6,1.41.4.36.92.54,1.58.55h3.24v-3.96h-2.93c-.76,0-1.36.19-1.81.56-.45.37-.67.85-.67,1.45Z"/>
    <path class="cls-4" d="m263.28,76.35v-11.94h9.59v11.94h-2.04v-10.25h-5.49v10.25h-2.05Z"/>
    <path class="cls-4" d="m275.09,76.35v-1.8l.58-.04c.66-.07,1.14-.46,1.42-1.15.29-.69.47-1.97.55-3.84l.22-5.11h8.07v11.94h-2.05v-10.25h-4.06l-.24,4.47c-.13,2.05-.48,3.52-1.03,4.4s-1.44,1.34-2.64,1.38h-.82Z"/>
    <path class="cls-4" d="m289.38,76.35v-11.94h2.04v8.72l5.5-8.72h2.04v11.94h-2.04v-8.71l-5.5,8.71h-2.04Z"/>
    <path class="cls-4" d="m301.14,66.07v-1.66h9.97v1.66h-4.01v10.28h-2.04v-10.28h-3.93Z"/>
    <path class="cls-4" d="m313.28,76.35v-11.94h2.05v5.05h1.33l4.02-5.05h2.47l-4.72,5.74,5.12,6.2h-2.59l-4.14-5.09h-1.49v5.09h-2.05Z"/>
    <path class="cls-4" d="m326.39,70.14c.94-.69,2.27-1.03,3.98-1.03h1.98v-.94c0-.71-.21-1.28-.64-1.71s-1.05-.63-1.89-.63c-.73,0-1.34.18-1.83.55-.49.37-.74.81-.74,1.33h-2.05c0-.6.21-1.17.63-1.73.42-.55,1-.99,1.72-1.32s1.52-.49,2.39-.49c1.38,0,2.45.34,3.23,1.03.78.69,1.18,1.64,1.21,2.84v5.5c0,1.1.14,1.97.42,2.62v.18h-2.14c-.12-.24-.21-.65-.29-1.26-.95.99-2.08,1.48-3.4,1.48-1.18,0-2.14-.33-2.9-1-.75-.67-1.13-1.51-1.13-2.53,0-1.24.47-2.21,1.42-2.9Zm1.26,4.11c.43.36.97.54,1.64.54s1.25-.17,1.82-.5c.57-.33.99-.76,1.25-1.29v-2.45h-1.6c-2.5,0-3.75.73-3.75,2.19,0,.64.21,1.14.64,1.5Z"/>
    <path class="cls-4" d="m343.29,76.35v-11.94h2.04v8.72l5.5-8.72h2.04v11.94h-2.04v-8.71l-5.5,8.71h-2.04Z"/>
    <path class="cls-4" d="m361.85,76.35v-11.94h2.05v5.05h1.33l4.02-5.05h2.47l-4.72,5.74,5.12,6.2h-2.59l-4.14-5.09h-1.49v5.09h-2.05Z"/>
    <path class="cls-4" d="m373.35,70.71v-.37c0-1.18.23-2.24.68-3.17s1.08-1.66,1.9-2.18c.81-.53,1.69-.79,2.64-.79,1.55,0,2.76.51,3.62,1.53.86,1.02,1.29,2.49,1.29,4.39v.85h-8.09c.03,1.18.37,2.13,1.03,2.85.66.72,1.49,1.09,2.51,1.09.72,0,1.33-.15,1.83-.44s.94-.68,1.31-1.17l1.25.97c-1,1.54-2.5,2.31-4.5,2.31-1.62,0-2.93-.53-3.95-1.59-1.02-1.06-1.52-2.48-1.52-4.26Zm8.09-1.42v-.15c-.06-1.04-.34-1.84-.84-2.41-.5-.57-1.18-.85-2.03-.85s-1.51.3-2.07.9c-.56.6-.9,1.44-1.04,2.52h5.98Z"/>
    <path class="cls-4" d="m385.84,64.41h1.86l.1,1.32c.83-1.03,1.99-1.54,3.46-1.54s2.57.54,3.4,1.62c.83,1.08,1.25,2.59,1.25,4.51v.19c0,1.82-.42,3.28-1.25,4.39-.83,1.11-1.96,1.67-3.38,1.67s-2.59-.46-3.42-1.38v5.75h-2.04v-16.53Zm4.84,10.49c.98,0,1.76-.39,2.33-1.16.58-.78.87-1.93.87-3.46,0-1.35-.29-2.41-.86-3.19-.57-.78-1.36-1.17-2.36-1.17-1.24,0-2.16.55-2.78,1.64v5.7c.61,1.09,1.54,1.63,2.8,1.63Z"/>
    <path class="cls-4" d="m399.6,70.14c.94-.69,2.27-1.03,3.98-1.03h1.98v-.94c0-.71-.21-1.28-.64-1.71s-1.05-.63-1.89-.63c-.73,0-1.34.18-1.83.55-.49.37-.74.81-.74,1.33h-2.05c0-.6.21-1.17.63-1.73.42-.55,1-.99,1.72-1.32s1.52-.49,2.39-.49c1.38,0,2.45.34,3.23,1.03.78.69,1.18,1.64,1.21,2.84v5.5c0,1.1.14,1.97.42,2.62v.18h-2.14c-.12-.24-.21-.65-.29-1.26-.95.99-2.08,1.48-3.4,1.48-1.18,0-2.14-.33-2.9-1-.75-.67-1.13-1.51-1.13-2.53,0-1.24.47-2.21,1.42-2.9Zm1.26,4.11c.43.36.97.54,1.64.54s1.25-.17,1.82-.5c.57-.33.99-.76,1.25-1.29v-2.45h-1.6c-2.5,0-3.75.73-3.75,2.19,0,.64.21,1.14.64,1.5Z"/>
    <path class="cls-4" d="m413.64,64.41l4.04,9.24,4.06-9.24h2.55v11.94h-2.04v-8.68l-3.86,8.68h-1.41l-3.94-8.87v8.87h-2.04v-11.94h2.65Z"/>
    <path class="cls-4" d="m427.03,70.42v-.14c0-1.17.23-2.22.69-3.16s1.1-1.66,1.92-2.16c.82-.51,1.76-.76,2.81-.76,1.63,0,2.94.56,3.94,1.69,1,1.12,1.5,2.62,1.5,4.49v.14c0,1.16-.22,2.21-.67,3.13s-1.08,1.64-1.91,2.16c-.83.52-1.78.77-2.85.77-1.62,0-2.93-.56-3.93-1.69-1-1.12-1.5-2.62-1.5-4.47Zm2.05.1c0,1.32.31,2.39.92,3.19.61.8,1.44,1.2,2.47,1.2s1.86-.41,2.47-1.22c.61-.81.92-1.95.92-3.41,0-1.31-.31-2.37-.93-3.18-.62-.81-1.45-1.22-2.48-1.22s-1.82.4-2.44,1.2c-.62.8-.93,1.95-.93,3.44Z"/>
    <path class="cls-4" d="m448.16,66.1h-5.5v10.25h-2.05v-11.94h7.56v1.69Z"/>
    <path class="cls-4" d="m449.93,64.41h1.86l.1,1.32c.83-1.03,1.99-1.54,3.46-1.54s2.57.54,3.4,1.62c.83,1.08,1.25,2.59,1.25,4.51v.19c0,1.82-.42,3.28-1.25,4.39-.83,1.11-1.96,1.67-3.38,1.67s-2.59-.46-3.42-1.38v5.75h-2.04v-16.53Zm4.84,10.49c.98,0,1.76-.39,2.33-1.16.58-.78.87-1.93.87-3.46,0-1.35-.29-2.41-.86-3.19-.57-.78-1.36-1.17-2.36-1.17-1.24,0-2.16.55-2.78,1.64v5.7c.61,1.09,1.54,1.63,2.8,1.63Z"/>
    <path class="cls-4" d="m463.69,70.14c.94-.69,2.27-1.03,3.98-1.03h1.98v-.94c0-.71-.21-1.28-.64-1.71s-1.05-.63-1.89-.63c-.73,0-1.34.18-1.83.55-.49.37-.74.81-.74,1.33h-2.05c0-.6.21-1.17.63-1.73.42-.55,1-.99,1.72-1.32s1.52-.49,2.39-.49c1.38,0,2.45.34,3.23,1.03.78.69,1.18,1.64,1.21,2.84v5.5c0,1.1.14,1.97.42,2.62v.18h-2.14c-.12-.24-.21-.65-.29-1.26-.95.99-2.08,1.48-3.4,1.48-1.18,0-2.14-.33-2.9-1-.75-.67-1.13-1.51-1.13-2.53,0-1.24.47-2.21,1.42-2.9Zm1.26,4.11c.43.36.97.54,1.64.54s1.25-.17,1.82-.5c.57-.33.99-.76,1.25-1.29v-2.45h-1.6c-2.5,0-3.75.73-3.75,2.19,0,.64.21,1.14.64,1.5Z"/>
    <path class="cls-4" d="m475.07,76.35v-11.94h2.05v5.17h5.48v-5.17h2.04v11.94h-2.04v-5.1h-5.48v5.1h-2.05Z"/>
    <path class="cls-4" d="m488.1,76.35v-11.94h2.04v8.72l5.5-8.72h2.04v11.94h-2.04v-8.71l-5.5,8.71h-2.04Z"/>
    <path class="cls-4" d="m499.86,66.07v-1.66h9.97v1.66h-4.01v10.28h-2.04v-10.28h-3.93Z"/>
  </g>
  <g>
    <polygon class="cls-3" points="21.69 75.25 52.5 44.44 21.69 13.62 21.69 75.25"/>
    <polygon class="cls-2" points="85.55 75.25 54.73 44.44 85.55 13.62 85.55 75.25"/>
    <polygon class="cls-4" points="22.8 76.37 53.62 45.55 84.43 76.37 22.8 76.37"/>
    <polygon class="cls-1" points="22.8 12.51 53.62 43.32 84.43 12.51 22.8 12.51"/>
  </g>
</svg>